# xmcd
#
# Track frame offsets: 
#        150
#        18498
#        43262
#        73814
#        95696
#        113253
#        119689
#
# Disc length: 1861 seconds
#
# Revision: 0
# Processed by: cddbd v1.5.2PL0 Copyright (c) Steve Scherf et al.
# Submitted via: ExactAudioCopy v0.95b4
#
DISCID=5f074307
DTITLE=Inhearted - Deduced to Purgatory
DYEAR=2008
DGENRE=Melodic Death Metal
TTITLE0=Walk the Earth
TTITLE1=Hell's Damnation
TTITLE2=Parental Slaughter
TTITLE3=Aesthetic Existence
TTITLE4=Deathlike Silence
TTITLE5=Blackcrowned
TTITLE6=Revelation
EXTD=
EXTT0=
EXTT1=
EXTT2=
EXTT3=
EXTT4=
EXTT5=
EXTT6=
PLAYORDER=
